# Blender v2.79 (sub 0) OBJ File: ''
# www.blender.org
o colchon_Plane.001
v 1.400000 0.533596 0.906949
v 1.400000 0.383596 -0.893051
v 1.400000 0.383596 0.906949
v 1.400000 0.533596 -0.893051
v 2.584813 0.383596 -0.893051
v 2.584813 0.533596 -0.893051
v 2.584813 0.383596 0.906949
v 2.584813 0.533596 0.906949
v 2.600000 0.383596 -0.893051
v 2.600000 0.533596 0.906949
v 2.600000 0.383596 0.906949
v 1.415187 0.383596 -0.893051
v 2.600000 0.533596 -0.893051
v 1.415187 0.383596 0.906949
v 1.415187 0.533596 -0.893051
v 1.415187 0.533596 0.906949
vt 0.000000 0.000000
vt 0.000000 0.000000
vt 0.000000 0.000000
vt 0.000000 0.000000
vt 0.000000 0.000000
vt 0.000000 0.000000
vt 0.000000 0.000000
vt 0.000000 0.000000
vt 0.000000 0.000000
vt 0.000000 0.000000
vt 0.000000 0.000000
vt 0.000000 0.000000
vt 0.000000 0.000000
vt 0.000000 0.000000
vt 0.000000 0.000000
vt 0.000000 0.000000
vn -1.0000 0.0000 0.0000
vn 0.0000 0.0000 -1.0000
vn 1.0000 0.0000 0.0000
vn 0.0000 0.0000 1.0000
vn 0.0000 -1.0000 -0.0000
vn 0.0000 1.0000 0.0000
s 1
f 1/1/1 2/2/1 3/3/1
f 4/4/2 5/5/2 2/2/2
f 6/6/3 7/7/3 5/5/3
f 8/8/4 3/3/4 7/7/4
f 5/5/5 3/3/5 2/2/5
f 4/4/6 8/8/6 6/6/6
f 9/9/3 10/10/3 11/11/3
f 12/12/2 13/13/2 9/9/2
f 14/14/1 15/15/1 12/12/1
f 11/11/4 16/16/4 14/14/4
f 11/11/5 12/12/5 9/9/5
f 16/16/6 13/13/6 15/15/6
f 1/1/1 4/4/1 2/2/1
f 4/4/2 6/6/2 5/5/2
f 6/6/3 8/8/3 7/7/3
f 8/8/4 1/1/4 3/3/4
f 5/5/5 7/7/5 3/3/5
f 4/4/6 1/1/6 8/8/6
f 9/9/3 13/13/3 10/10/3
f 12/12/2 15/15/2 13/13/2
f 14/14/1 16/16/1 15/15/1
f 11/11/4 10/10/4 16/16/4
f 11/11/5 14/14/5 12/12/5
f 16/16/6 10/10/6 13/13/6
