# Blender v2.79 (sub 0) OBJ File: ''
# www.blender.org
o mesa_material
v 1.771736 -0.000079 3.075312
v 1.727032 -0.000079 3.030608
v 1.771736 -0.000079 3.030608
v 1.771736 0.726121 3.030608
v 1.727032 -0.000079 3.075312
v 1.727032 0.726121 3.030608
v 1.727032 0.726121 3.075312
v 1.771736 0.726121 3.075312
v 1.284055 -0.000079 3.030608
v 1.239351 -0.000079 3.075312
v 1.239351 -0.000079 3.030608
v 1.239351 0.726121 3.030608
v 1.284055 -0.000079 3.075312
v 1.239351 0.726121 3.075312
v 1.284055 0.726121 3.075312
v 1.284055 0.726121 3.030608
v 1.727032 -0.000079 3.924688
v 1.771736 -0.000079 3.969392
v 1.727032 -0.000079 3.969392
v 1.727032 0.726121 3.969392
v 1.771736 -0.000079 3.924688
v 1.771736 0.726121 3.969392
v 1.771736 0.726121 3.924688
v 1.727032 0.726121 3.924688
v 1.239351 -0.000079 3.969392
v 1.284055 -0.000079 3.924688
v 1.284055 -0.000079 3.969392
v 1.284055 0.726121 3.969392
v 1.239351 -0.000079 3.924688
v 1.284055 0.726121 3.924688
v 1.239351 0.726121 3.924688
v 1.239351 0.726121 3.969392
v 1.277959 0.727040 3.073280
v 1.277957 0.621394 3.926720
v 1.277959 0.621394 3.073280
v 1.245445 0.621394 3.926720
v 1.245447 0.727040 3.073280
v 1.245447 0.621394 3.073280
v 1.282413 0.727040 3.930784
v 1.728647 0.621394 3.930784
v 1.282413 0.621394 3.930784
v 1.728647 0.621394 3.963296
v 1.282413 0.727040 3.963296
v 1.282413 0.621394 3.963296
v 1.733126 0.727040 3.926720
v 1.733128 0.621394 3.073280
v 1.733126 0.621394 3.926720
v 1.765640 0.621394 3.073280
v 1.765638 0.727040 3.926720
v 1.765638 0.621394 3.926720
v 1.728570 0.727040 3.069216
v 1.282336 0.621394 3.069216
v 1.728570 0.621394 3.069216
v 1.282336 0.621394 3.036704
v 1.728570 0.727040 3.036704
v 1.728570 0.621394 3.036704
v 1.805542 0.749921 3.000000
v 1.205542 0.749921 4.000000
v 1.805542 0.749921 4.000000
v 1.205542 0.723924 3.000000
v 1.205542 0.723924 4.000000
v 1.805542 0.723924 4.000000
v 1.805542 0.723924 3.000000
v 1.205542 0.749921 3.000000
v 1.277957 0.727040 3.926720
v 1.245445 0.727040 3.926720
v 1.728647 0.727040 3.930784
v 1.728647 0.727040 3.963296
v 1.733128 0.727040 3.073280
v 1.765640 0.727040 3.073280
v 1.282336 0.727040 3.069216
v 1.282336 0.727040 3.036704
vt 1.050800 0.905700
vt 1.130900 0.985700
vt 1.050800 0.985700
vt 1.000000 0.808600
vt 0.000000 0.710900
vt 1.000000 0.710900
vt 1.000000 0.903600
vt 0.000000 0.808600
vt 1.000000 1.000000
vt 0.000000 0.902300
vt 0.000000 0.808200
vt 1.000000 0.808200
vt 1.050800 0.905700
vt 1.130900 0.985700
vt 1.050800 0.985700
vt 1.000000 0.808600
vt 0.000000 0.710900
vt 1.000000 0.710900
vt 1.000000 0.903600
vt 0.000000 0.808600
vt 1.000000 1.000000
vt 0.000000 0.902300
vt 0.000000 0.808200
vt 1.000000 0.808200
vt 1.050800 0.905700
vt 1.130900 0.985700
vt 1.050800 0.985700
vt 1.000000 0.808600
vt 0.000000 0.710900
vt 1.000000 0.710900
vt 1.000000 0.903600
vt 0.000000 0.808600
vt 1.000000 1.000000
vt 0.000000 0.902300
vt 0.000000 0.808200
vt 1.000000 0.808200
vt 1.050800 0.905700
vt 1.130900 0.985700
vt 1.050800 0.985700
vt 1.000000 0.808600
vt 0.000000 0.710900
vt 1.000000 0.710900
vt 1.000000 0.903600
vt 0.000000 0.808600
vt 1.000000 1.000000
vt 0.000000 0.902300
vt 0.000000 0.808200
vt 1.000000 0.808200
vt 0.226900 0.807200
vt 0.996500 0.883600
vt 0.226900 0.883600
vt 0.997500 0.903100
vt 0.225800 0.998500
vt 0.225800 0.903100
vt 0.996500 0.852500
vt 0.226900 0.852500
vt 0.996400 0.905000
vt 0.434900 0.828600
vt 0.996400 0.828600
vt 0.433900 0.809100
vt 0.997500 0.713700
vt 0.997500 0.809100
vt 0.434900 0.859700
vt 0.996400 0.859700
vt 0.226900 0.807200
vt 0.996500 0.883600
vt 0.226900 0.883600
vt 0.997500 0.903100
vt 0.225800 0.998500
vt 0.225800 0.903100
vt 0.996500 0.852500
vt 0.226900 0.852500
vt 0.140700 0.989800
vt 0.702100 0.913400
vt 0.140700 0.913400
vt 0.703100 0.904100
vt 0.139600 0.814500
vt 0.139600 0.904100
vt 0.702100 0.960400
vt 0.140700 0.960400
vt 0.025500 0.698600
vt 0.975900 0.025000
vt 0.975900 0.698600
vt 0.000000 0.000000
vt 1.003900 -0.000000
vt 1.000000 0.024800
vt 1.000200 0.698800
vt 0.968900 0.698900
vt 0.032200 0.656600
vt 0.968900 0.656600
vt 0.025500 0.025000
vt 0.000000 0.698100
vt 0.000000 0.025200
vt 0.025300 0.024400
vt 0.975700 0.698100
vt 0.975700 0.024400
vt 1.130900 0.905700
vt 0.000000 1.000000
vt 1.130900 0.905700
vt 0.000000 1.000000
vt 1.130900 0.905700
vt 0.000000 1.000000
vt 1.130900 0.905700
vt 0.000000 1.000000
vt 0.996500 0.807200
vt 0.997500 0.998500
vt 0.434900 0.905000
vt 0.433900 0.713700
vt 0.996500 0.807200
vt 0.997500 0.998500
vt 0.702100 0.989800
vt 0.703100 0.814500
vt 0.032200 0.698900
vt 0.025300 0.698100
vn 0.0000 -1.0000 -0.0000
vn 0.0000 0.0000 -1.0000
vn -1.0000 0.0000 0.0000
vn 0.0000 -0.0000 1.0000
vn 1.0000 0.0000 0.0000
vn 0.0000 1.0000 0.0000
s 1
f 1/1/1 2/2/1 3/3/1
f 2/4/2 4/5/2 3/6/2
f 5/7/3 6/8/3 2/4/3
f 1/9/4 7/10/4 5/7/4
f 3/6/5 8/11/5 1/12/5
f 9/13/1 10/14/1 11/15/1
f 10/16/3 12/17/3 11/18/3
f 13/19/4 14/20/4 10/16/4
f 9/21/5 15/22/5 13/19/5
f 11/18/2 16/23/2 9/24/2
f 17/25/1 18/26/1 19/27/1
f 18/28/4 20/29/4 19/30/4
f 21/31/5 22/32/5 18/28/5
f 17/33/2 23/34/2 21/31/2
f 19/30/3 24/35/3 17/36/3
f 25/37/1 26/38/1 27/39/1
f 26/40/5 28/41/5 27/42/5
f 29/43/2 30/44/2 26/40/2
f 25/45/3 31/46/3 29/43/3
f 27/42/4 32/47/4 25/48/4
f 33/49/5 34/50/5 35/51/5
f 36/52/3 37/53/3 38/54/3
f 34/55/1 38/54/1 35/56/1
f 39/57/2 40/58/2 41/59/2
f 42/60/4 43/61/4 44/62/4
f 40/63/1 44/62/1 41/64/1
f 45/65/3 46/66/3 47/67/3
f 48/68/5 49/69/5 50/70/5
f 46/71/1 50/70/1 47/72/1
f 51/73/4 52/74/4 53/75/4
f 54/76/2 55/77/2 56/78/2
f 52/79/1 56/78/1 53/80/1
f 57/81/6 58/82/6 59/83/6
f 58/82/3 60/84/3 61/85/3
f 59/83/4 61/86/4 62/87/4
f 57/88/5 62/89/5 63/90/5
f 64/91/2 63/92/2 60/93/2
f 60/94/1 62/95/1 61/96/1
f 1/1/1 5/97/1 2/2/1
f 2/4/2 6/8/2 4/5/2
f 5/7/3 7/10/3 6/8/3
f 1/9/4 8/98/4 7/10/4
f 3/6/5 4/5/5 8/11/5
f 9/13/1 13/99/1 10/14/1
f 10/16/3 14/20/3 12/17/3
f 13/19/4 15/22/4 14/20/4
f 9/21/5 16/100/5 15/22/5
f 11/18/2 12/17/2 16/23/2
f 17/25/1 21/101/1 18/26/1
f 18/28/4 22/32/4 20/29/4
f 21/31/5 23/34/5 22/32/5
f 17/33/2 24/102/2 23/34/2
f 19/30/3 20/29/3 24/35/3
f 25/37/1 29/103/1 26/38/1
f 26/40/5 30/44/5 28/41/5
f 29/43/2 31/46/2 30/44/2
f 25/45/3 32/104/3 31/46/3
f 27/42/4 28/41/4 32/47/4
f 33/49/5 65/105/5 34/50/5
f 36/52/3 66/106/3 37/53/3
f 34/55/1 36/52/1 38/54/1
f 39/57/2 67/107/2 40/58/2
f 42/60/4 68/108/4 43/61/4
f 40/63/1 42/60/1 44/62/1
f 45/65/3 69/109/3 46/66/3
f 48/68/5 70/110/5 49/69/5
f 46/71/1 48/68/1 50/70/1
f 51/73/4 71/111/4 52/74/4
f 54/76/2 72/112/2 55/77/2
f 52/79/1 54/76/1 56/78/1
f 57/81/6 64/91/6 58/82/6
f 58/82/3 64/91/3 60/84/3
f 59/83/4 58/82/4 61/86/4
f 57/88/5 59/113/5 62/89/5
f 64/91/2 57/81/2 63/92/2
f 60/94/1 63/114/1 62/95/1
