# Blender v2.80 (sub 75) OBJ File: 'partes_robot.blend'
# www.blender.org
o meñique_Cylinder.003
v -3.465258 0.754474 -2.425399
v -3.532754 0.742942 -2.258164
v -3.473817 0.755425 -2.427864
v -3.539668 0.745360 -2.260034
v -3.482047 0.757871 -2.430121
v -3.546040 0.749182 -2.261640
v -3.489632 0.761719 -2.432084
v -3.496280 0.766820 -2.433677
v -3.501736 0.772979 -2.434840
v -3.559614 0.767364 -2.264322
v -3.505790 0.779958 -2.435527
v -3.508286 0.787489 -2.435713
v -3.509130 0.795284 -2.435389
v -3.508286 0.803042 -2.434569
v -3.505790 0.810465 -2.433283
v -3.501736 0.817268 -2.431582
v -3.551625 0.810630 -2.258774
v -3.496280 0.823190 -2.429531
v -3.546040 0.815466 -2.256764
v -3.489632 0.828003 -2.427208
v -3.482047 0.831522 -2.424703
v -3.473817 0.833612 -2.422112
v -3.465258 0.834193 -2.419535
v -3.456699 0.833241 -2.417071
v -3.448469 0.830795 -2.414813
v -3.505087 0.814579 -2.244702
v -3.440884 0.826947 -2.412850
v -3.434236 0.821846 -2.411257
v -3.428780 0.815688 -2.410094
v -3.424726 0.808709 -2.409407
v -3.422229 0.801177 -2.409221
v -3.488708 0.781082 -2.242315
v -3.421386 0.793383 -2.409545
v -3.489416 0.773321 -2.243096
v -3.422229 0.785625 -2.410365
v -3.424726 0.778201 -2.411651
v -3.428780 0.771398 -2.413352
v -3.434236 0.765476 -2.415403
v -3.440884 0.760663 -2.417726
v -3.448469 0.757144 -2.420231
v -3.518373 0.742631 -2.253929
v -3.456699 0.755054 -2.422822
v -3.525563 0.742021 -2.256103
v -3.551625 0.754260 -2.262920
v -3.556208 0.804689 -2.260568
v -3.539668 0.819011 -2.254616
v -3.525563 0.821740 -2.250239
v -3.499502 0.809501 -2.243422
v -3.494919 0.803361 -2.242516
v -3.491513 0.796396 -2.242020
v -3.489416 0.788873 -2.241952
v -3.491513 0.765889 -2.244264
v -3.499502 0.753131 -2.247568
v -3.505088 0.748295 -2.249578
v -3.511459 0.744749 -2.251725
v -3.556208 0.760399 -2.263826
v -3.561711 0.774887 -2.264390
v -3.562419 0.782679 -2.264026
v -3.561711 0.790440 -2.263246
v -3.559614 0.797872 -2.262078
v -3.532754 0.821130 -2.252413
v -3.518373 0.820818 -2.248178
v -3.511459 0.818400 -2.246308
v -3.494919 0.759072 -2.245774
v -3.523259 0.742497 -2.262571
v -3.531818 0.743448 -2.265036
v -3.540048 0.745894 -2.267293
v -3.547633 0.749742 -2.269256
v -3.554281 0.754843 -2.270849
v -3.559737 0.761002 -2.272012
v -3.563792 0.767981 -2.272700
v -3.566288 0.775512 -2.272885
v -3.567131 0.783307 -2.272561
v -3.566288 0.791065 -2.271741
v -3.563792 0.798488 -2.270456
v -3.559737 0.805291 -2.268754
v -3.554281 0.811213 -2.266703
v -3.547633 0.816026 -2.264380
v -3.540048 0.819545 -2.261875
v -3.531818 0.821635 -2.259284
v -3.523259 0.822216 -2.256707
v -3.514700 0.821265 -2.254243
v -3.506470 0.818818 -2.251985
v -3.498886 0.814970 -2.250022
v -3.492237 0.809869 -2.248429
v -3.486781 0.803711 -2.247266
v -3.482727 0.796732 -2.246579
v -3.480231 0.789200 -2.246393
v -3.479388 0.781406 -2.246717
v -3.480231 0.773648 -2.247538
v -3.482727 0.766224 -2.248823
v -3.486781 0.759421 -2.250524
v -3.492238 0.753499 -2.252575
v -3.498886 0.748686 -2.254898
v -3.506470 0.745167 -2.257403
v -3.514700 0.743077 -2.259994
v -3.532787 0.757775 -2.251710
v -3.537009 0.759252 -2.252851
v -3.540899 0.761585 -2.253832
v -3.549186 0.772686 -2.255470
v -3.544309 0.799102 -2.252082
v -3.540899 0.802054 -2.250855
v -3.515896 0.801513 -2.243491
v -3.505895 0.781061 -2.242033
v -3.506328 0.776323 -2.242510
v -3.524007 0.757585 -2.249124
v -3.528397 0.757213 -2.250451
v -3.544309 0.764685 -2.254614
v -3.547107 0.795474 -2.253178
v -3.537009 0.804219 -2.249544
v -3.528397 0.805885 -2.246871
v -3.512486 0.798412 -2.242709
v -3.509687 0.794664 -2.242156
v -3.507608 0.790411 -2.241853
v -3.506328 0.785818 -2.241812
v -3.507608 0.771785 -2.243223
v -3.512486 0.763996 -2.245241
v -3.515896 0.761043 -2.246468
v -3.519786 0.758879 -2.247779
v -3.547107 0.768434 -2.255167
v -3.550467 0.777279 -2.255511
v -3.550900 0.782036 -2.255289
v -3.550467 0.786775 -2.254812
v -3.549186 0.791312 -2.254100
v -3.532787 0.805512 -2.248199
v -3.524007 0.805322 -2.245613
v -3.519786 0.803846 -2.244471
v -3.509687 0.767623 -2.244145
vt 1.000000 0.750000
vt 0.968750 1.000000
vt 0.968750 0.750000
vt 0.937500 1.000000
vt 0.937500 0.750000
vt 0.906250 1.000000
vt 0.906250 0.750000
vt 0.875000 1.000000
vt 0.875000 0.750000
vt 0.843750 1.000000
vt 0.843750 0.750000
vt 0.812500 1.000000
vt 0.812500 0.750000
vt 0.781250 1.000000
vt 0.781250 0.750000
vt 0.750000 1.000000
vt 0.750000 0.750000
vt 0.718750 0.750000
vt 0.718750 1.000000
vt 0.687500 0.750000
vt 0.687500 1.000000
vt 0.656250 0.750000
vt 0.656250 1.000000
vt 0.625000 0.750000
vt 0.625000 1.000000
vt 0.593750 0.750000
vt 0.593750 1.000000
vt 0.562500 0.750000
vt 0.562500 1.000000
vt 0.531250 0.750000
vt 0.531250 1.000000
vt 0.500000 0.750000
vt 0.500000 1.000000
vt 0.468750 0.750000
vt 0.468750 1.000000
vt 0.437500 0.750000
vt 0.437500 1.000000
vt 0.406250 0.750000
vt 0.406250 1.000000
vt 0.375000 0.750000
vt 0.375000 1.000000
vt 0.343750 0.750000
vt 0.343750 1.000000
vt 0.312500 0.750000
vt 0.312500 1.000000
vt 0.281250 0.750000
vt 0.281250 1.000000
vt 0.250000 0.750000
vt 0.218750 1.000000
vt 0.218750 0.750000
vt 0.187500 1.000000
vt 0.187500 0.750000
vt 0.156250 1.000000
vt 0.156250 0.750000
vt 0.125000 1.000000
vt 0.125000 0.750000
vt 0.093750 1.000000
vt 0.093750 0.750000
vt 0.062500 1.000000
vt 0.062500 0.750000
vt 0.419706 0.419706
vt 0.383337 0.449553
vt 0.419706 0.080294
vt 0.031250 1.000000
vt 0.031250 0.750000
vt 0.000000 1.000000
vt 0.000000 0.750000
vt 0.812500 0.500000
vt 0.843750 0.500000
vt 0.843750 0.500000
vt 0.031250 0.500000
vt 0.000000 0.500000
vt 0.062500 0.500000
vt 0.093750 0.500000
vt 0.125000 0.500000
vt 0.156250 0.500000
vt 0.187500 0.500000
vt 0.218750 0.500000
vt 0.250000 0.500000
vt 0.281250 0.500000
vt 0.312500 0.500000
vt 0.343750 0.500000
vt 0.375000 0.500000
vt 0.406250 0.500000
vt 0.437500 0.500000
vt 0.468750 0.500000
vt 0.500000 0.500000
vt 0.531250 0.500000
vt 0.562500 0.500000
vt 0.593750 0.500000
vt 0.625000 0.500000
vt 0.656250 0.500000
vt 0.687500 0.500000
vt 0.718750 0.500000
vt 0.750000 0.500000
vt 0.781250 0.500000
vt 0.875000 0.500000
vt 0.906250 0.500000
vt 0.937500 0.500000
vt 0.968750 0.500000
vt 1.000000 0.500000
vt 0.616663 0.449553
vt 0.658156 0.471731
vt 0.883337 0.449553
vt 0.156250 0.500000
vt 0.500000 0.500000
vt 0.531250 0.500000
vt 0.062500 0.500000
vt 0.781250 0.500000
vt 0.468750 0.500000
vt 0.812500 0.500000
vt 0.718750 0.500000
vt 0.750000 0.500000
vt 0.031250 0.500000
vt 0.687500 0.500000
vt 0.343750 0.500000
vt 0.375000 0.500000
vt 0.437500 0.500000
vt 0.406250 0.500000
vt 0.968750 0.500000
vt 1.000000 0.500000
vt 0.937500 0.500000
vt 0.125000 0.500000
vt 0.656250 0.500000
vt 0.312500 0.500000
vt 0.593750 0.500000
vt 0.625000 0.500000
vt 0.250000 0.500000
vt 0.281250 0.500000
vt 0.093750 0.500000
vt 0.906250 0.500000
vt 0.218750 0.500000
vt 0.562500 0.500000
vt 0.875000 0.500000
vt 0.187500 0.500000
vt 1.000000 1.000000
vt 0.250000 1.000000
vt 0.341844 0.471731
vt 0.296822 0.485388
vt 0.296822 0.014612
vt 0.250000 0.490000
vt 0.250000 0.010000
vt 0.203179 0.485389
vt 0.203178 0.014612
vt 0.158156 0.471731
vt 0.158156 0.028269
vt 0.116663 0.449553
vt 0.080295 0.419706
vt 0.116663 0.050447
vt 0.050447 0.383337
vt 0.080294 0.080294
vt 0.028269 0.341844
vt 0.050447 0.116663
vt 0.014612 0.296822
vt 0.028269 0.158156
vt 0.010000 0.250000
vt 0.014611 0.203179
vt 0.341844 0.028269
vt 0.383337 0.050447
vt 0.449553 0.116663
vt 0.471731 0.158156
vt 0.449553 0.383337
vt 0.485388 0.203178
vt 0.485388 0.296822
vt 0.490000 0.250000
vt 0.471731 0.341844
vt 0.703179 0.485389
vt 0.750000 0.490000
vt 0.796822 0.485388
vt 0.841844 0.471731
vt 0.919706 0.419706
vt 0.580295 0.419706
vt 0.949553 0.383337
vt 0.550447 0.383337
vt 0.971731 0.341844
vt 0.985388 0.296822
vt 0.528269 0.341844
vt 0.990000 0.250000
vt 0.510000 0.250000
vt 0.985388 0.203178
vt 0.514611 0.203179
vt 0.971731 0.158156
vt 0.949553 0.116663
vt 0.528269 0.158156
vt 0.919706 0.080294
vt 0.580294 0.080294
vt 0.883337 0.050447
vt 0.616663 0.050447
vt 0.841844 0.028269
vt 0.796822 0.014612
vt 0.658156 0.028269
vt 0.750000 0.010000
vt 0.703178 0.014612
vt 0.550447 0.116663
vt 0.514612 0.296822
vt 0.000000 0.500000
vn 0.0809 0.9915 0.1018
vn 0.2417 0.9576 0.1566
vn 0.3992 0.8930 0.2079
vn 0.5496 0.7958 0.2543
vn 0.6873 0.6643 0.2937
vn 0.8042 0.4989 0.3232
vn 0.8903 0.3035 0.3395
vn 0.9364 0.0872 0.3400
vn 0.9364 -0.1359 0.3236
vn 0.8903 -0.3499 0.2914
vn 0.8042 -0.5408 0.2467
vn 0.6873 -0.7002 0.1933
vn 0.5496 -0.8244 0.1351
vn 0.3992 -0.9138 0.0750
vn 0.2417 -0.9702 0.0147
vn 0.0809 -0.9957 -0.0444
vn -0.0809 -0.9915 -0.1018
vn -0.2417 -0.9576 -0.1566
vn -0.3992 -0.8930 -0.2079
vn -0.5496 -0.7958 -0.2543
vn -0.6873 -0.6644 -0.2937
vn -0.8042 -0.4989 -0.3232
vn -0.8903 -0.3035 -0.3395
vn -0.9364 -0.0871 -0.3400
vn -0.9364 0.1359 -0.3236
vn -0.8903 0.3498 -0.2914
vn -0.8041 0.5408 -0.2467
vn -0.6873 0.7002 -0.1933
vn -0.5496 0.8244 -0.1351
vn -0.3992 0.9138 -0.0750
vn -0.2832 -0.0704 0.9565
vn -0.2417 0.9702 -0.0147
vn -0.0809 0.9957 0.0444
vn 0.5641 0.2191 -0.7961
vn -0.0962 0.9946 0.0389
vn -0.2654 0.9599 -0.0901
vn -0.3927 0.8758 -0.2806
vn -0.4648 0.7392 -0.4874
vn -0.4845 0.5733 -0.6607
vn -0.4730 0.4092 -0.7803
vn -0.4524 0.2616 -0.8526
vn -0.4354 0.1293 -0.8909
vn -0.4354 0.0024 -0.9002
vn -0.4524 -0.1341 -0.8817
vn -0.4730 -0.2906 -0.8318
vn -0.4845 -0.4705 -0.7375
vn -0.4647 -0.6600 -0.5903
vn -0.3927 -0.8253 -0.4058
vn -0.2654 -0.9364 -0.2296
vn -0.0962 -0.9896 -0.1071
vn 0.0962 -0.9946 -0.0389
vn 0.3013 -0.9531 -0.0291
vn 0.5072 -0.8572 -0.0896
vn 0.6812 -0.7058 -0.1944
vn 0.7964 -0.5222 -0.3052
vn 0.8543 -0.3397 -0.3933
vn 0.8756 -0.1765 -0.4496
vn 0.8789 -0.0323 -0.4759
vn 0.8789 0.1016 -0.4661
vn 0.8756 0.2403 -0.4190
vn 0.8544 0.3936 -0.3394
vn 0.7963 0.5612 -0.2256
vn 0.6812 0.7267 -0.0891
vn 0.5071 0.8611 0.0367
vn 0.3013 0.9471 0.1107
vn 0.0962 0.9896 0.1070
vn 0.2832 0.0703 -0.9565
vn 0.0431 0.2582 -0.9651
vn 0.2996 -0.2492 -0.9209
vn 0.1806 0.3619 -0.9146
vn 0.6050 0.0919 -0.7909
vn 0.2387 -0.2424 -0.9404
vn 0.5911 0.1577 -0.7910
vn 0.6050 0.0249 -0.7958
vn 0.2386 0.3774 -0.8948
vn 0.5911 -0.0402 -0.8056
vn 0.0431 -0.1143 -0.9925
vn 0.1805 -0.2242 -0.9577
vn 0.1277 -0.1957 -0.9723
vn 0.3614 0.3727 -0.8547
vn 0.2996 0.3812 -0.8746
vn 0.4215 0.3515 -0.8359
vn 0.0813 -0.1586 -0.9840
vn 0.0814 0.3008 -0.9502
vn 0.5641 -0.1002 -0.8196
vn 0.0136 -0.0644 -0.9978
vn 0.4770 -0.1947 -0.8571
vn -0.0164 0.0451 -0.9988
vn 0.5253 -0.1526 -0.8371
vn -0.0164 0.1015 -0.9947
vn 0.1277 0.3359 -0.9332
vn -0.0064 -0.0108 -0.9999
vn 0.4770 0.3181 -0.8193
vn -0.0064 0.1570 -0.9876
vn 0.4215 -0.2254 -0.8784
vn 0.5254 0.2733 -0.8058
vn 0.0137 0.2098 -0.9777
vn 0.3613 -0.2437 -0.9000
vn 0.2417 0.9576 0.1565
vn 0.6873 0.6644 0.2937
vn 0.8041 0.4990 0.3231
vn 0.9364 -0.1360 0.3236
vn 0.8041 -0.5409 0.2466
vn 0.5497 -0.8244 0.1351
vn -0.0809 -0.9915 -0.1017
vn -0.8041 -0.4990 -0.3231
vn -0.9364 -0.0872 -0.3400
vn -0.9364 0.1360 -0.3236
vn -0.8903 0.3499 -0.2914
vn -0.8041 0.5409 -0.2467
vn -0.2833 -0.0704 0.9565
vn -0.2833 -0.0704 0.9564
vn -0.2828 -0.0703 0.9566
vn -0.2834 -0.0704 0.9564
vn -0.2831 -0.0704 0.9565
vn -0.2832 -0.0703 0.9565
vn -0.2834 -0.0703 0.9564
vn -0.2833 -0.0703 0.9564
vn -0.2418 0.9702 -0.0147
vn -0.0758 0.9967 0.0274
vn -0.2107 0.9709 -0.1138
vn -0.3168 0.8987 -0.3032
vn -0.3852 0.7744 -0.5020
vn -0.4168 0.6157 -0.6688
vn -0.4249 0.4496 -0.7857
vn -0.4249 0.2913 -0.8571
vn -0.4268 0.1409 -0.8933
vn -0.4268 -0.0086 -0.9043
vn -0.4248 -0.1627 -0.8905
vn -0.4249 -0.3298 -0.8430
vn -0.4168 -0.5112 -0.7516
vn -0.3852 -0.6926 -0.6099
vn -0.3168 -0.8447 -0.4315
vn -0.2108 -0.9438 -0.2546
vn -0.0758 -0.9900 -0.1187
vn 0.0859 -0.9944 -0.0615
vn 0.2702 -0.9591 -0.0847
vn 0.4585 -0.8741 -0.1602
vn 0.6243 -0.7354 -0.2633
vn 0.7446 -0.5606 -0.3623
vn 0.8171 -0.3780 -0.4353
vn 0.8552 -0.2052 -0.4759
vn 0.8733 -0.0435 -0.4853
vn 0.8733 0.1141 -0.4737
vn 0.8552 0.2727 -0.4407
vn 0.8171 0.4376 -0.3752
vn 0.7447 0.6075 -0.2764
vn 0.6244 0.7660 -0.1529
vn 0.4585 0.8882 -0.0306
vn 0.2702 0.9611 0.0565
vn 0.0859 0.9927 0.0847
vn 0.2832 0.0701 -0.9565
vn 0.2832 0.0704 -0.9565
vn 0.2833 0.0704 -0.9565
vn 0.2833 0.0703 -0.9565
vn 0.2832 0.0706 -0.9564
vn 0.0430 0.2583 -0.9651
vn 0.2995 -0.2492 -0.9210
vn 0.1805 0.3619 -0.9146
vn 0.2385 -0.2424 -0.9404
vn 0.5911 0.1576 -0.7910
vn 0.6050 0.0248 -0.7958
vn 0.2385 0.3773 -0.8948
vn 0.5911 -0.0403 -0.8056
vn 0.0431 -0.1142 -0.9925
vn 0.1806 -0.2241 -0.9577
vn 0.3615 0.3727 -0.8547
vn 0.2997 0.3813 -0.8746
vn 0.4215 0.3516 -0.8359
vn 0.0814 -0.1586 -0.9840
vn 0.4770 -0.1948 -0.8570
vn 0.5254 -0.1525 -0.8371
vn -0.0164 0.1016 -0.9947
vn -0.0063 -0.0108 -0.9999
vn 0.4770 0.3180 -0.8194
vn -0.0063 0.1570 -0.9876
vn 0.5254 0.2734 -0.8057
vn 0.0136 0.2097 -0.9777
vn 0.3615 -0.2436 -0.9000
s off
f 65/1/1 3/2/1 66/3/1
f 66/3/2 5/4/2 67/5/2
f 67/5/3 7/6/3 68/7/3
f 68/7/4 8/8/4 69/9/4
f 69/9/5 9/10/5 70/11/5
f 70/11/6 11/12/6 71/13/6
f 71/13/7 12/14/7 72/15/7
f 72/15/8 13/16/8 73/17/8
f 13/16/9 74/18/9 73/17/9
f 14/19/10 75/20/10 74/18/10
f 15/21/11 76/22/11 75/20/11
f 16/23/12 77/24/12 76/22/12
f 18/25/13 78/26/13 77/24/13
f 20/27/14 79/28/14 78/26/14
f 21/29/15 80/30/15 79/28/15
f 22/31/16 81/32/16 80/30/16
f 23/33/17 82/34/17 81/32/17
f 24/35/18 83/36/18 82/34/18
f 25/37/19 84/38/19 83/36/19
f 27/39/20 85/40/20 84/38/20
f 28/41/21 86/42/21 85/40/21
f 29/43/22 87/44/22 86/42/22
f 30/45/23 88/46/23 87/44/23
f 31/47/24 89/48/24 88/46/24
f 89/48/25 35/49/25 90/50/25
f 90/50/26 36/51/26 91/52/26
f 91/52/27 37/53/27 92/54/27
f 92/54/28 38/55/28 93/56/28
f 93/56/29 39/57/29 94/58/29
f 94/58/30 40/59/30 95/60/30
f 8/61/31 7/62/31 18/63/31
f 95/60/32 42/64/32 96/65/32
f 96/65/33 1/66/33 65/67/33
f 10/68/34 120/69/34 56/70/34
f 41/71/35 65/67/35 43/72/35
f 55/73/36 96/65/36 41/71/36
f 54/74/37 95/60/37 55/73/37
f 53/75/38 94/58/38 54/74/38
f 64/76/39 93/56/39 53/75/39
f 52/77/40 92/54/40 64/76/40
f 34/78/41 91/52/41 52/77/41
f 32/79/42 90/50/42 34/78/42
f 88/46/43 32/79/43 51/80/43
f 87/44/44 51/80/44 50/81/44
f 86/42/45 50/81/45 49/82/45
f 85/40/46 49/82/46 48/83/46
f 84/38/47 48/83/47 26/84/47
f 83/36/48 26/84/48 63/85/48
f 82/34/49 63/85/49 62/86/49
f 81/32/50 62/86/50 47/87/50
f 61/88/51 81/32/51 47/87/51
f 46/89/52 80/30/52 61/88/52
f 19/90/53 79/28/53 46/89/53
f 17/91/54 78/26/54 19/90/54
f 45/92/55 77/24/55 17/91/55
f 60/93/56 76/22/56 45/92/56
f 59/94/57 75/20/57 60/93/57
f 58/95/58 74/18/58 59/94/58
f 72/15/59 58/95/59 57/96/59
f 71/13/60 57/96/60 10/68/60
f 70/11/61 10/68/61 56/70/61
f 69/9/62 56/70/62 44/97/62
f 68/7/63 44/97/63 6/98/63
f 67/5/64 6/98/64 4/99/64
f 66/3/65 4/99/65 2/100/65
f 65/1/66 2/100/66 43/101/66
f 118/102/67 119/103/67 99/104/67
f 53/75/68 128/105/68 64/76/68
f 61/88/69 111/106/69 125/107/69
f 41/71/70 119/108/70 55/73/70
f 58/95/71 121/109/71 57/96/71
f 47/87/72 126/110/72 111/106/72
f 57/96/73 100/111/73 10/68/73
f 58/95/74 123/112/74 122/113/74
f 43/72/75 106/114/75 41/71/75
f 59/94/76 124/115/76 123/112/76
f 48/83/77 113/116/77 112/117/77
f 62/86/78 127/118/78 126/110/78
f 63/85/79 103/119/79 127/118/79
f 4/99/80 97/120/80 2/100/80
f 2/100/81 107/121/81 43/101/81
f 6/98/82 98/122/82 4/99/82
f 26/84/83 112/117/83 103/119/83
f 54/74/84 117/123/84 53/75/84
f 60/93/85 109/124/85 124/115/85
f 49/82/86 114/125/86 113/116/86
f 17/91/87 102/126/87 101/127/87
f 51/80/88 104/128/88 115/129/88
f 45/92/89 101/127/89 109/124/89
f 34/78/90 104/128/90 32/79/90
f 55/73/91 118/130/91 54/74/91
f 50/81/92 115/129/92 114/125/92
f 44/97/93 99/131/93 6/98/93
f 52/77/94 105/132/94 34/78/94
f 19/90/95 110/133/95 102/126/95
f 56/70/96 108/134/96 44/97/96
f 64/76/97 116/135/97 52/77/97
f 46/89/98 125/107/98 110/133/98
f 65/1/1 1/136/1 3/2/1
f 66/3/99 3/2/99 5/4/99
f 67/5/3 5/4/3 7/6/3
f 68/7/4 7/6/4 8/8/4
f 69/9/100 8/8/100 9/10/100
f 70/11/101 9/10/101 11/12/101
f 71/13/7 11/12/7 12/14/7
f 72/15/8 12/14/8 13/16/8
f 13/16/102 14/19/102 74/18/102
f 14/19/10 15/21/10 75/20/10
f 15/21/103 16/23/103 76/22/103
f 16/23/12 18/25/12 77/24/12
f 18/25/104 20/27/104 78/26/104
f 20/27/14 21/29/14 79/28/14
f 21/29/15 22/31/15 80/30/15
f 22/31/16 23/33/16 81/32/16
f 23/33/105 24/35/105 82/34/105
f 24/35/18 25/37/18 83/36/18
f 25/37/19 27/39/19 84/38/19
f 27/39/20 28/41/20 85/40/20
f 28/41/21 29/43/21 86/42/21
f 29/43/106 30/45/106 87/44/106
f 30/45/23 31/47/23 88/46/23
f 31/47/107 33/137/107 89/48/107
f 89/48/108 33/137/108 35/49/108
f 90/50/109 35/49/109 36/51/109
f 91/52/110 36/51/110 37/53/110
f 92/54/28 37/53/28 38/55/28
f 93/56/29 38/55/29 39/57/29
f 94/58/30 39/57/30 40/59/30
f 5/138/31 3/139/31 22/140/31
f 3/139/31 1/141/31 23/142/31
f 1/141/31 42/143/31 24/144/31
f 42/143/111 40/145/111 25/146/111
f 40/145/31 39/147/31 25/146/31
f 39/147/31 38/148/31 27/149/31
f 25/146/111 39/147/111 27/149/111
f 38/148/111 37/150/111 28/151/111
f 37/150/31 36/152/31 29/153/31
f 28/151/111 37/150/111 29/153/111
f 36/152/112 35/154/112 30/155/112
f 35/154/31 33/156/31 31/157/31
f 30/155/113 35/154/113 31/157/113
f 30/155/114 29/153/114 36/152/114
f 28/151/115 27/149/115 38/148/115
f 25/146/31 24/144/31 42/143/31
f 24/144/111 23/142/111 1/141/111
f 23/142/111 22/140/111 3/139/111
f 22/140/31 21/158/31 5/138/31
f 21/158/31 20/159/31 5/138/31
f 20/159/112 18/63/112 7/62/112
f 5/138/116 20/159/116 7/62/116
f 18/63/111 16/160/111 8/61/111
f 16/160/31 15/161/31 9/162/31
f 8/61/31 16/160/31 9/162/31
f 15/161/117 14/163/117 12/164/117
f 14/163/31 13/165/31 12/164/31
f 12/164/118 11/166/118 15/161/118
f 11/166/115 9/162/115 15/161/115
f 95/60/119 40/59/119 42/64/119
f 96/65/33 42/64/33 1/66/33
f 10/68/34 100/111/34 120/69/34
f 41/71/120 96/65/120 65/67/120
f 55/73/121 95/60/121 96/65/121
f 54/74/122 94/58/122 95/60/122
f 53/75/123 93/56/123 94/58/123
f 64/76/124 92/54/124 93/56/124
f 52/77/125 91/52/125 92/54/125
f 34/78/126 90/50/126 91/52/126
f 32/79/127 89/48/127 90/50/127
f 88/46/128 89/48/128 32/79/128
f 87/44/129 88/46/129 51/80/129
f 86/42/130 87/44/130 50/81/130
f 85/40/131 86/42/131 49/82/131
f 84/38/132 85/40/132 48/83/132
f 83/36/133 84/38/133 26/84/133
f 82/34/134 83/36/134 63/85/134
f 81/32/135 82/34/135 62/86/135
f 61/88/136 80/30/136 81/32/136
f 46/89/137 79/28/137 80/30/137
f 19/90/138 78/26/138 79/28/138
f 17/91/139 77/24/139 78/26/139
f 45/92/140 76/22/140 77/24/140
f 60/93/141 75/20/141 76/22/141
f 59/94/142 74/18/142 75/20/142
f 58/95/143 73/17/143 74/18/143
f 72/15/144 73/17/144 58/95/144
f 71/13/145 72/15/145 57/96/145
f 70/11/146 71/13/146 10/68/146
f 69/9/147 70/11/147 56/70/147
f 68/7/148 69/9/148 44/97/148
f 67/5/149 68/7/149 6/98/149
f 66/3/150 67/5/150 4/99/150
f 65/1/151 66/3/151 2/100/151
f 106/167/152 107/168/152 97/169/152
f 97/169/67 98/170/67 106/167/67
f 98/170/153 99/104/153 119/103/153
f 106/167/153 98/170/153 119/103/153
f 99/104/154 108/171/154 117/172/154
f 108/171/67 120/173/67 128/174/67
f 120/173/153 100/175/153 128/174/153
f 100/175/67 121/176/67 116/177/67
f 128/174/153 100/175/153 116/177/153
f 121/176/154 122/178/154 104/179/154
f 122/178/154 123/180/154 115/181/154
f 123/180/67 124/182/67 115/181/67
f 124/182/153 109/183/153 114/184/153
f 115/181/154 124/182/154 114/184/154
f 109/183/153 101/185/153 112/186/153
f 101/185/67 102/187/67 103/188/67
f 102/187/155 110/189/155 103/188/155
f 110/189/67 125/190/67 127/191/67
f 103/188/67 110/189/67 127/191/67
f 125/190/67 111/192/67 126/193/67
f 126/193/156 127/191/156 125/190/156
f 103/188/153 112/186/153 101/185/153
f 112/186/67 113/194/67 109/183/67
f 113/194/67 114/184/67 109/183/67
f 115/181/67 104/179/67 122/178/67
f 104/179/153 105/195/153 121/176/153
f 105/195/153 116/177/153 121/176/153
f 128/174/153 117/172/153 108/171/153
f 117/172/153 118/102/153 99/104/153
f 53/75/157 117/123/157 128/105/157
f 61/88/158 47/87/158 111/106/158
f 41/71/159 106/114/159 119/108/159
f 58/95/71 122/113/71 121/109/71
f 47/87/160 62/86/160 126/110/160
f 57/96/161 121/109/161 100/111/161
f 58/95/162 59/94/162 123/112/162
f 43/72/163 107/196/163 106/114/163
f 59/94/164 60/93/164 124/115/164
f 48/83/165 49/82/165 113/116/165
f 62/86/166 63/85/166 127/118/166
f 63/85/79 26/84/79 103/119/79
f 4/99/167 98/122/167 97/120/167
f 2/100/168 97/120/168 107/121/168
f 6/98/169 99/131/169 98/122/169
f 26/84/170 48/83/170 112/117/170
f 54/74/84 118/130/84 117/123/84
f 60/93/85 45/92/85 109/124/85
f 49/82/86 50/81/86 114/125/86
f 17/91/171 19/90/171 102/126/171
f 51/80/88 32/79/88 104/128/88
f 45/92/172 17/91/172 101/127/172
f 34/78/173 105/132/173 104/128/173
f 55/73/91 119/108/91 118/130/91
f 50/81/174 51/80/174 115/129/174
f 44/97/175 108/134/175 99/131/175
f 52/77/176 116/135/176 105/132/176
f 19/90/95 46/89/95 110/133/95
f 56/70/177 120/69/177 108/134/177
f 64/76/178 128/105/178 116/135/178
f 46/89/179 61/88/179 125/107/179
