# Blender v2.79 (sub 0) OBJ File: 'techo.blend'
# www.blender.org
o techo_Plane.004
v 3.500000 2.500000 -2.500000
v 3.500000 2.500000 5.500000
v -6.500000 2.500000 5.500000
v 3.500000 2.500000 1.500000
v -6.500000 2.500000 1.500000
v -1.500000 2.500000 -2.500000
v -1.500000 2.500000 5.500000
v -1.500000 2.500000 1.500000
v 3.500000 2.250000 -2.500000
v 3.500000 2.250000 5.500000
v -6.500000 2.250000 5.500000
v 3.500000 2.250000 1.500000
v -6.500000 2.250000 1.500000
v -1.500000 2.250000 -2.500000
v -1.500000 2.250000 5.500000
v -1.500000 2.250000 1.500000
v 3.384530 2.492783 -2.407624
v 3.384530 2.492783 5.407624
v -6.384530 2.492783 5.407624
v 3.358583 2.491161 1.500000
v -6.384530 2.492783 1.592376
v -1.384530 2.492783 -2.407624
v -1.500000 2.491161 5.386867
v -1.439702 2.488694 1.548239
v 3.384530 2.257217 -2.407624
v 3.384530 2.257217 5.407624
v -6.384530 2.257217 5.407624
v 3.358583 2.258839 1.500000
v -6.384530 2.257217 1.592376
v -1.384530 2.257217 -2.407624
v -1.500000 2.258839 5.386867
v -1.439702 2.261306 1.548239
vt 1.000000 0.000000
vt 0.000000 1.000000
vt 0.000000 0.000000
vt 1.000000 0.000000
vt 0.000000 1.000000
vt 0.000000 0.000000
vt 1.000000 0.000000
vt 0.000000 1.000000
vt 0.000000 0.000000
vt 0.000000 1.000000
vt 1.000000 0.000000
vt 0.000000 0.000000
vt 0.000000 1.000000
vt 1.000000 0.000000
vt 0.000000 0.000000
vt 0.000000 1.000000
vt 1.000000 0.000000
vt 0.000000 0.000000
vt 1.000000 1.000000
vt 1.000000 1.000000
vt 1.000000 1.000000
vt 1.000000 1.000000
vt 1.000000 1.000000
vt 0.000000 1.000000
vt 1.000000 0.000000
vt 0.000000 0.000000
vt 0.000000 1.000000
vt 1.000000 0.000000
vt 0.000000 0.000000
vt 0.000000 1.000000
vt 1.000000 0.000000
vt 0.000000 0.000000
vt 1.000000 0.000000
vt 0.000000 1.000000
vt 0.000000 0.000000
vt 1.000000 0.000000
vt 0.000000 1.000000
vt 0.000000 0.000000
vt 1.000000 0.000000
vt 0.000000 1.000000
vt 0.000000 0.000000
vt 1.000000 1.000000
vt 1.000000 1.000000
vt 1.000000 1.000000
vt 1.000000 1.000000
vt 1.000000 1.000000
vt 1.000000 1.000000
vt 1.000000 1.000000
vn 0.0000 1.0000 0.0000
vn 0.0000 -1.0000 0.0000
vn 1.0000 0.0000 0.0000
vn 0.0000 0.0000 1.0000
vn -1.0000 0.0000 0.0000
vn 0.0000 0.0000 -1.0000
vn 0.0005 -1.0000 -0.0010
vn 0.0003 -1.0000 0.0006
vn -0.0003 -1.0000 0.0000
vn 0.0005 1.0000 -0.0010
vn 0.0003 1.0000 0.0006
vn -0.0003 1.0000 0.0000
vn -1.0000 0.0000 -0.0066
vn 0.0042 0.0000 -1.0000
vn -1.0000 0.0000 0.0066
vn 0.0089 0.0000 1.0000
vn -0.0042 0.0000 -1.0000
vn 0.9999 0.0000 0.0139
vn 0.0000 -1.0000 -0.0004
vn 0.0005 -1.0000 0.0004
vn -0.0008 -1.0000 0.0006
vn 0.0000 1.0000 -0.0004
vn 0.0005 1.0000 0.0004
vn -0.0008 1.0000 0.0006
s off
f 4/1/1 6/2/1 8/3/1
f 2/4/1 8/5/1 7/6/1
f 7/7/1 5/8/1 3/9/1
f 14/10/2 12/11/2 16/12/2
f 16/13/2 10/14/2 15/15/2
f 13/16/2 15/17/2 11/18/2
f 4/1/3 9/19/3 1/20/3
f 7/6/4 10/14/4 2/4/4
f 5/8/5 11/18/5 3/9/5
f 2/4/3 12/21/3 4/22/3
f 8/23/6 13/16/6 5/8/6
f 1/20/6 14/10/6 6/2/6
f 3/9/4 15/17/4 7/7/4
f 6/2/5 16/12/5 8/3/5
f 22/24/7 20/25/7 24/26/7
f 24/27/8 18/28/8 23/29/8
f 21/30/9 23/31/9 19/32/9
f 28/33/10 30/34/10 32/35/10
f 26/36/11 32/37/11 31/38/11
f 31/39/12 29/40/12 27/41/12
f 25/42/13 20/25/13 17/43/13
f 26/36/14 23/29/14 18/28/14
f 27/41/3 21/30/3 19/32/3
f 28/44/15 18/28/15 20/45/15
f 29/40/16 24/46/16 21/30/16
f 30/34/4 17/43/4 22/24/4
f 31/39/17 19/32/17 23/31/17
f 32/35/18 22/24/18 24/26/18
f 4/1/1 1/20/1 6/2/1
f 2/4/1 4/22/1 8/5/1
f 7/7/1 8/23/1 5/8/1
f 14/10/2 9/19/2 12/11/2
f 16/13/2 12/21/2 10/14/2
f 13/16/2 16/47/2 15/17/2
f 4/1/3 12/11/3 9/19/3
f 7/6/4 15/15/4 10/14/4
f 5/8/5 13/16/5 11/18/5
f 2/4/3 10/14/3 12/21/3
f 8/23/6 16/47/6 13/16/6
f 1/20/6 9/19/6 14/10/6
f 3/9/4 11/18/4 15/17/4
f 6/2/5 14/10/5 16/12/5
f 22/24/19 17/43/19 20/25/19
f 24/27/20 20/45/20 18/28/20
f 21/30/21 24/46/21 23/31/21
f 28/33/22 25/42/22 30/34/22
f 26/36/23 28/44/23 32/37/23
f 31/39/24 32/48/24 29/40/24
f 25/42/13 28/33/13 20/25/13
f 26/36/14 31/38/14 23/29/14
f 27/41/3 29/40/3 21/30/3
f 28/44/15 26/36/15 18/28/15
f 29/40/16 32/48/16 24/46/16
f 30/34/4 25/42/4 17/43/4
f 31/39/17 27/41/17 19/32/17
f 32/35/18 30/34/18 22/24/18
